#!OML:ASF F:\VICON\USERDATA\INSTALL\rory3\rory3.ASF
:FULLY-SPECIFIED
:DEGREES
282
root 2.44303 16.7416 -3.64792 7.65817 -38.0694 -0.417669
lowerback -5.44729 0.25919 0.771469
upperback -4.32432 0.275961 0.484735
thorax -1.39193 0.108923 0.0770145
lowerneck -10.8016 9.90965 3.8815
upperneck 34.9383 14.7679 -3.70242
head 14.3955 6.27881 0.0997333
rclavicle -8.7751e-014 -1.66979e-014
rhumerus 35.7982 -26.4966 -30.6797
rradius 128.803
rwrist -59.9785
rhand -5.94924 -45.3087
rfingers 7.12502
rthumb 19.8812 -74.3118
lclavicle -8.7751e-014 -1.66979e-014
lhumerus 23.1119 -14.5999 2.74936
lradius 34.5605
lwrist 31.5489
lhand -15.8201 -20.8643
lfingers 7.12502
lthumb 10.3737 8.85978
rfemur -18.5218 -8.5167 17.5315
rtibia 45.5401
rfoot -29.5726 -27.4393
rtoes -1.83593
lfemur -24.8824 -10.4957 0.693679
ltibia 16.1324
lfoot 6.33678 22.3401
ltoes -4.95835
283
root 2.43855 16.7405 -3.65781 7.57054 -37.9897 -0.319968
lowerback -5.53056 0.322404 0.77933
upperback -4.20965 0.35897 0.343433
thorax -1.22597 0.149876 -0.0683639
lowerneck -11.1966 9.80302 3.97346
upperneck 35.1877 14.5766 -3.62158
head 14.5896 6.19628 0.114802
rclavicle 8.29491e-014 5.96354e-016
rhumerus 35.8769 -26.3772 -30.9936
rradius 128.747
rwrist -59.7686
rhand -6.66212 -44.8874
rfingers 7.12502
rthumb 19.1958 -73.96
lclavicle 8.29491e-014 5.96354e-016
lhumerus 22.7941 -16.2204 1.74645
lradius 35.8968
lwrist 33.1685
lhand -16.3501 -20.0192
lfingers 7.12502
lthumb 9.86243 9.72981
rfemur -18.5473 -8.61236 17.4667
rtibia 45.675
rfoot -29.621 -27.4507
rtoes -1.722
lfemur -24.9582 -10.528 0.622703
ltibia 16.2562
lfoot 6.37937 22.3697
ltoes -4.98093
284
root 2.43561 16.7348 -3.67331 7.46121 -37.9005 -0.332024
lowerback -5.33522 0.397711 0.758563
upperback -4.14565 0.463359 0.294335
thorax -1.2675 0.202744 -0.103658
lowerneck -11.5097 9.68915 4.0524
upperneck 35.3438 14.421 -3.67864
head 14.7391 6.11621 0.0759583
rclavicle -4.84538e-015 -1.0635e-014
rhumerus 35.953 -26.3429 -31.2693
rradius 128.728
rwrist -59.4494
rhand -5.98282 -44.9705
rfingers 7.12502
rthumb 19.8489 -73.9769
lclavicle -4.84538e-015 -1.0635e-014
lhumerus 23.0513 -17.2955 1.32673
lradius 35.9462
lwrist 34.162
lhand -16.5104 -19.9188
lfingers 7.12502
lthumb 9.70774 9.83745
rfemur -18.5122 -8.61298 17.5195
rtibia 45.8247
rfoot -29.6612 -27.5446
rtoes -1.53183
lfemur -24.9493 -10.4302 0.605551
ltibia 16.3472
lfoot 6.50449 22.1162
ltoes -5.21853
285
root 2.43317 16.7243 -3.69266 7.50345 -37.7474 -0.557772
lowerback -5.17953 0.442162 0.89572
upperback -4.08405 0.52042 0.320417
thorax -1.28924 0.229396 -0.152311
lowerneck -11.6326 9.56537 4.0681
upperneck 35.3434 14.2987 -3.86088
head 14.7817 6.03747 -0.0126457
rclavicle 2.47176e-014 5.86415e-015
rhumerus 36.0911 -26.3547 -31.4945
rradius 128.702
rwrist -59.3231
rhand -5.09075 -45.2531
rfingers 7.12502
rthumb 20.7062 -74.1684
lclavicle 2.47176e-014 5.86415e-015
lhumerus 23.4903 -16.9366 2.18154
lradius 35.2065
lwrist 33.4155
lhand -16.4092 -20.3044
lfingers 7.12502
lthumb 9.80537 9.44732
rfemur -18.52 -8.60457 17.7812
rtibia 46.012
rfoot -30.0288 -27.4031
rtoes -0.727253
lfemur -24.9931 -10.3363 0.823083
ltibia 16.385
lfoot 6.60703 21.8099
ltoes -5.12379
286
root 2.43087 16.7105 -3.71643 7.51253 -37.611 -0.683042
lowerback -5.11465 0.452395 0.996717
upperback -4.07535 0.531742 0.356229
thorax -1.31577 0.233428 -0.172157
lowerneck -11.3683 9.43597 3.92532
upperneck 35.2823 14.1822 -3.99079
head 14.687 5.9617 -0.0795502
rclavicle 4.44532e-014 1.63003e-014
rhumerus 36.1671 -26.2061 -31.5041
rradius 128.734
rwrist -59.5265
rhand -5.06205 -45.2136
rfingers 7.12502
rthumb 20.7338 -74.1259
lclavicle 4.44532e-014 1.63003e-014
lhumerus 23.624 -16.8814 2.94244
lradius 34.7951
lwrist 32.7669
lhand -16.5679 -20.6976
lfingers 7.12502
lthumb 9.65224 9.06126
rfemur -18.6404 -8.7249 17.9661
rtibia 46.2553
rfoot -30.4146 -27.1764
rtoes 0.14076
lfemur -25.093 -10.2794 1.01337
ltibia 16.3798
lfoot 6.61238 21.6304
ltoes -4.47682
287
root 2.42737 16.7004 -3.73589 7.39756 -37.4893 -0.664521
lowerback -5.04497 0.395543 0.989727
upperback -4.11408 0.457623 0.415274
thorax -1.39578 0.196667 -0.111087
lowerneck -10.853 9.36147 3.65094
upperneck 35.2183 14.1552 -4.06021
head 14.5212 5.9225 -0.101191
rclavicle -4.93359e-014 -7.05686e-015
rhumerus 36.3761 -26.0211 -31.7284
rradius 128.896
rwrist -60.027
rhand -5.16998 -45.0918
rfingers 7.12502
rthumb 20.6301 -74.0155
lclavicle -4.93359e-014 -7.05686e-015
lhumerus 23.3109 -17.4823 3.31532
lradius 34.7887
lwrist 32.884
lhand -16.5208 -20.7411
lfingers 7.12502
lthumb 9.69775 9.01561
rfemur -18.7243 -8.92084 18.0063
rtibia 46.5322
rfoot -30.3489 -27.312
rtoes -0.342502
lfemur -25.0775 -10.3198 1.05808
ltibia 16.3036
lfoot 6.68463 21.5466
ltoes -4.44688
288
root 2.42395 16.6948 -3.74637 7.11269 -37.3549 -0.392195
lowerback -5.05402 0.271601 0.822971
upperback -4.05627 0.298452 0.372143
thorax -1.33302 0.120816 -0.0677259
lowerneck -10.6684 9.37744 3.58375
upperneck 35.1952 14.2372 -4.19059
head 14.4818 5.93615 -0.140284
rclavicle 8.82915e-014 1.88845e-014
rhumerus 36.8866 -25.9086 -32.4458
rradius 128.99
rwrist -60.3208
rhand -4.98376 -45.1872
rfingers 7.12502
rthumb 20.809 -74.0913
lclavicle 8.82915e-014 1.88845e-014
lhumerus 22.8765 -16.2016 5.04381
lradius 34.2818
lwrist 30.9127
lhand -15.9477 -21.0142
lfingers 7.12502
lthumb 10.2507 8.71606
rfemur -18.7281 -9.1823 17.7735
rtibia 46.8207
rfoot -30.3812 -27.2442
rtoes -0.772691
lfemur -24.9969 -10.472 0.84295
ltibia 16.217
lfoot 6.77604 21.5188
ltoes -4.61076
289
root 2.42296 16.686 -3.76544 6.85592 -37.1792 -0.0549835
lowerback -5.07272 0.19301 0.631519
upperback -3.93094 0.200672 0.196434
thorax -1.19398 0.0751897 -0.144259
lowerneck -10.9406 9.3512 3.65595
upperneck 35.3328 14.161 -4.1101
head 14.601 5.90824 -0.114545
rclavicle -9.23106e-015 -1.39149e-015
rhumerus 37.3479 -25.8511 -33.2244
rradius 128.909
rwrist -60.0576
rhand -4.68185 -45.267
rfingers 7.12502
rthumb 21.0991 -74.139
lclavicle -9.23106e-015 -1.39149e-015
lhumerus 22.3381 -17.7047 4.0395
lradius 35.5843
lwrist 32.649
lhand -16.555 -20.4151
lfingers 7.12502
lthumb 9.66474 9.34317
rfemur -18.8381 -9.39991 17.5298
rtibia 47.0965
rfoot -30.6184 -27.0442
rtoes -0.313134
lfemur -25.1003 -10.7016 0.638658
ltibia 16.1883
lfoot 6.986 21.5637
ltoes -4.56613
290
root 2.42316 16.6734 -3.79657 6.97926 -36.8731 -0.244949
lowerback -5.03767 0.244149 0.846381
upperback -3.85163 0.261899 0.0994207
thorax -1.13006 0.101372 -0.361796
lowerneck -11.2081 9.19958 3.6557
upperneck 35.505 13.8816 -3.92644
head 14.7069 5.79889 -0.0705286
rclavicle -1.59028e-014 3.03147e-015
rhumerus 37.3907 -25.9617 -33.5643
rradius 128.859
rwrist -59.8793
rhand -5.20023 -45.0554
rfingers 7.12502
rthumb 20.601 -73.9822
lclavicle -1.59028e-014 3.03147e-015
lhumerus 22.5264 -18.404 3.74342
lradius 36.0402
lwrist 33.2851
lhand -16.7663 -19.9355
lfingers 7.12502
lthumb 9.4608 9.8321
rfemur -19.0215 -9.4355 17.8529
rtibia 47.3096
rfoot -30.9227 -27.0807
rtoes 0.279038
lfemur -25.3666 -10.981 0.997572
ltibia 16.1662
lfoot 7.1661 21.6241
ltoes -4.76445
291
root 2.41949 16.6645 -3.81947 7.16463 -36.5752 -0.564257
lowerback -5.05306 0.30717 1.14954
upperback -3.84507 0.334927 0.137892
thorax -1.11266 0.132592 -0.489253
lowerneck -11.1661 9.04724 3.423
upperneck 35.6172 13.6854 -3.82374
head 14.7074 5.69603 -0.0271048
rclavicle 1.99282e-014 -8.69683e-015
rhumerus 37.3014 -25.9945 -33.6175
rradius 128.943
rwrist -60.1706
rhand -6.18243 -44.9054
rfingers 7.12502
rthumb 19.657 -73.9315
lclavicle 1.99282e-014 -8.69683e-015
lhumerus 22.8454 -18.1595 4.67617
lradius 35.6649
lwrist 32.4572
lhand -16.4651 -19.8362
lfingers 7.12502
lthumb 9.75148 9.91801
rfemur -19.0984 -9.54724 18.2562
rtibia 47.4661
rfoot -31.373 -26.9602
rtoes 0.834962
lfemur -25.516 -11.1339 1.40113
ltibia 16.1504
lfoot 7.19131 21.4423
ltoes -5.22548
292
root 2.40993 16.664 -3.82879 7.16332 -36.396 -0.582974
lowerback -5.18122 0.275501 1.1891
upperback -3.89062 0.289152 0.222765
thorax -1.08937 0.109448 -0.42575
lowerneck -10.795 8.99794 2.95406
upperneck 35.6409 13.6802 -3.69124
head 14.5779 5.66034 0.077082
rclavicle -6.11263e-015 6.95746e-016
rhumerus 37.515 -25.6325 -33.8803
rradius 128.97
rwrist -60.2544
rhand -6.61991 -44.9372
rfingers 7.12502
rthumb 19.2363 -74.0058
lclavicle -6.11263e-015 6.95746e-016
lhumerus 22.6526 -17.9483 5.85729
lradius 35.2806
lwrist 31.4724
lhand -16.178 -19.48
lfingers 7.12502
lthumb 10.0284 10.2611
rfemur -19.0922 -9.84725 18.3137
rtibia 47.5918
rfoot -31.4408 -26.9709
rtoes 0.730523
lfemur -25.5566 -11.2002 1.44815
ltibia 16.1835
lfoot 7.2475 21.2539
ltoes -5.4082
293
root 2.40288 16.6592 -3.84268 7.12245 -36.2986 -0.559178
lowerback -5.17175 0.25662 1.10469
upperback -3.92928 0.267524 0.296324
thorax -1.13545 0.10063 -0.303954
lowerneck -10.5792 8.98243 2.72879
upperneck 35.7016 13.7362 -3.74614
head 14.5465 5.65048 0.088179
rclavicle -1.7375e-014 2.98177e-015
rhumerus 37.8192 -25.3213 -34.2294
rradius 128.923
rwrist -60.0204
rhand -6.35184 -45.1317
rfingers 7.12502
rthumb 19.4941 -74.1744
lclavicle -1.7375e-014 2.98177e-015
lhumerus 22.4058 -18.2213 6.49827
lradius 35.1502
lwrist 31.147
lhand -16.3516 -19.2511
lfingers 7.12502
lthumb 9.86094 10.498
rfemur -19.1568 -9.95272 18.3586
rtibia 47.7361
rfoot -31.0968 -27.3428
rtoes 0.0263194
lfemur -25.642 -11.1899 1.4647
ltibia 16.2457
lfoot 7.41173 21.1446
ltoes -5.64706
294
root 2.40201 16.6452 -3.86307 7.03221 -36.2704 -0.534807
lowerback -4.93075 0.271716 0.954039
upperback -3.95972 0.29734 0.348569
thorax -1.30139 0.118662 -0.165759
lowerneck -10.7554 8.94992 2.84789
upperneck 35.9428 13.7773 -4.00191
head 14.7414 5.63149 -0.0118134
rclavicle -1.27595e-014 1.05356e-014
rhumerus 37.9894 -25.206 -34.4096
rradius 128.957
rwrist -59.9582
rhand -5.86348 -45.3197
rfingers 7.12502
rthumb 19.9636 -74.3142
lclavicle -1.27595e-014 1.05356e-014
lhumerus 22.3131 -18.5622 6.94267
lradius 35.0327
lwrist 30.9517
lhand -16.3384 -19.7228
lfingers 7.12502
lthumb 9.87369 10.0257
rfemur -19.2796 -9.84081 18.4215
rtibia 47.9321
rfoot -30.9029 -27.6723
rtoes -0.406053
lfemur -25.7083 -11.1193 1.4865
ltibia 16.3103
lfoot 7.43016 21.0972
ltoes -5.64701
295
root 2.39936 16.6319 -3.8822 6.9814 -36.2291 -0.63387
lowerback -4.73679 0.280264 0.948539
upperback -3.95504 0.312394 0.395457
thorax -1.40469 0.126793 -0.114849
lowerneck -10.9663 8.89215 2.85528
upperneck 36.1733 13.7262 -4.03978
head 14.9022 5.58772 -0.0215538
rclavicle 5.01372e-014 1.00386e-014
rhumerus 38.0994 -25.1357 -34.5792
rradius 129.062
rwrist -60.1856
rhand -5.97854 -45.2165
rfingers 7.12502
rthumb 19.853 -74.2225
lclavicle 5.01372e-014 1.00386e-014
lhumerus 22.2072 -18.7939 7.41504
lradius 34.8935
lwrist 30.6393
lhand -15.9379 -20.2966
lfingers 7.12502
lthumb 10.2601 9.43316
rfemur -19.3361 -9.77481 18.5714
rtibia 48.1505
rfoot -31.0746 -27.7819
rtoes -0.300515
lfemur -25.7195 -11.0504 1.60402
ltibia 16.4023
lfoot 7.30104 21.0296
ltoes -5.10251
